<svg width="80" height="80" viewBox="0 0 80 80" fill="none" xmlns="http://www.w3.org/2000/svg">
<path d="M39.999 6.64905C47.0504 6.64906 53.2569 9.11498 58.6387 14.066C63.9921 18.9906 66.6836 25.5973 66.6836 33.941C66.6835 37.4028 65.9196 40.8475 64.3838 44.2789C62.8368 47.736 60.8981 51.0441 58.5654 54.2028C56.2267 57.3696 53.6847 60.3255 50.9404 63.0709V63.0719C48.1843 65.8297 45.6101 68.2725 43.2188 70.402L43.2129 70.4069L43.208 70.4127C42.7788 70.8188 42.2814 71.1134 41.7109 71.2985C41.1162 71.4914 40.5374 71.5855 39.9736 71.5856C39.4099 71.5856 38.8403 71.4913 38.2637 71.2994C37.711 71.1155 37.2302 70.8229 36.8164 70.4186L36.8076 70.4098L36.7979 70.401C34.3936 68.2718 31.8134 65.8293 29.0576 63.0719V63.0709C26.3133 60.3255 23.7713 57.3696 21.4326 54.2028C19.2459 51.2416 17.4074 48.1496 15.917 44.9264L15.624 44.2799C14.0947 40.8483 13.334 37.4031 13.334 33.941C13.334 25.5972 16.0224 18.9905 21.3691 14.066C26.7442 9.11507 32.9475 6.64905 39.999 6.64905ZM39.998 11.3463C33.8453 11.3463 28.63 13.459 24.3838 17.6813C20.129 21.9122 18.0117 27.3469 18.0117 33.941C18.0118 38.3518 19.8594 43.2554 23.4727 48.6373C27.087 54.0205 32.4875 60.0482 39.6582 66.7184L39.9951 67.0309L40.335 66.7223C47.6734 60.0648 53.1194 54.0385 56.6533 48.6432C60.1829 43.2542 61.9862 38.3487 61.9863 33.941C61.9863 27.3469 59.869 21.9122 55.6143 17.6813C51.367 13.459 46.1508 11.3463 39.998 11.3463ZM39.9912 27.8414C41.5191 27.8414 42.8074 28.3722 43.8838 29.444C44.959 30.5146 45.4912 31.7996 45.4912 33.3268C45.4912 34.8545 44.9604 36.1384 43.8896 37.2076C42.8193 38.2764 41.5348 38.8062 40.0068 38.8063C38.478 38.8063 37.1931 38.2785 36.124 37.2145C35.0562 36.1506 34.5264 34.8694 34.5264 33.3414C34.5264 31.8128 35.0536 30.5239 36.1182 29.4479L36.1191 29.4489C37.1833 28.3745 38.4642 27.8415 39.9912 27.8414Z" fill="#F0B8B8" stroke="#F0B8B8"/>
</svg>
